<svg width="250" height="40" version="1.1" viewBox="0 0 234 37.5" xmlns="http://www.w3.org/2000/svg">
 <path d="m71.2 6h14.7q3.68 0 5.64 1.82 1.98 1.82 1.98 4.51 0 2.26-1.41 3.87-0.937 1.08-2.74 1.7 2.74 0.66 4.03 2.27 1.3 1.6 1.3 4.03 0 1.98-0.92 3.56-0.92 1.58-2.52 2.5-0.99 0.572-2.98 0.832-2.66 0.347-3.52 0.347h-13.6zm7.93 9.98h3.42q1.84 0 2.55-0.626 0.73-0.642 0.73-1.84 0-1.11-0.73-1.73-0.711-0.625-2.5-0.625h-3.47zm0 10h4.01q2.03 0 2.86-0.712 0.833-0.729 0.833-1.94 0-1.13-0.833-1.8-0.816-0.694-2.88-0.694h-3.99zm33.3 1.27h-8.96l-1.23 4.2h-8.04l9.56-25.4h8.57l9.56 25.4h-8.23zm-1.65-5.5-2.81-9.15-2.79 9.15zm10.8 1.3 7.48-0.467q0.243 1.82 0.99 2.77 1.21 1.54 3.47 1.54 1.68 0 2.59-0.779 0.92-0.796 0.92-1.84 0-0.987-0.868-1.77-0.868-0.779-4.03-1.47-5.17-1.16-7.38-3.08-2.22-1.92-2.22-4.9 0-1.96 1.13-3.69 1.14-1.75 3.42-2.74 2.29-1 6.26-1 4.88 0 7.43 1.82 2.57 1.8 3.05 5.75l-7.41 0.433q-0.295-1.72-1.25-2.49-0.937-0.779-2.6-0.779-1.37 0-2.06 0.589-0.694 0.571-0.694 1.4 0 0.606 0.573 1.09 0.555 0.502 2.64 0.935 5.15 1.11 7.38 2.25 2.24 1.13 3.24 2.8 1.02 1.68 1.02 3.76 0 2.44-1.35 4.5-1.35 2.06-3.78 3.13-2.43 1.06-6.13 1.06-6.49 0-8.99-2.49-2.5-2.49-2.83-6.34zm25.6-17h21.1v5.43h-13.2v4.04h12.2v5.19h-12.2v5.02h13.6v5.76h-21.4zm24 0h7.08v25.4h-7.08zm10.4 0h7.06v4.81h-7.06zm0 7.01h7.06v18.4h-7.06zm10.1 0h6.58v3q1.48-1.84 2.98-2.62 1.51-0.799 3.68-0.799 2.93 0 4.58 1.75 1.67 1.74 1.67 5.38v11.7h-7.1v-10.1q0-1.74-0.642-2.45-0.643-0.729-1.8-0.729-1.28 0-2.08 0.972-0.798 0.972-0.798 3.49v8.85h-7.06zm42.7 11h-14.2q0.19 1.7 0.92 2.53 1.02 1.2 2.67 1.2 1.04 0 1.98-0.52 0.573-0.33 1.23-1.16l6.96 0.642q-1.6 2.78-3.85 3.99-2.26 1.2-6.47 1.2-3.66 0-5.76-1.02-2.1-1.04-3.49-3.28-1.37-2.26-1.37-5.29 0-4.32 2.76-6.99 2.78-2.67 7.65-2.67 3.96 0 6.25 1.2 2.29 1.2 3.49 3.47 1.2 2.27 1.2 5.92zm-7.18-3.38q-0.209-2.05-1.11-2.93-0.885-0.885-2.34-0.885-1.68 0-2.69 1.34-0.642 0.833-0.815 2.48z"/>
 <path d="m22.6 32.6c0.168-0.631 0.126-1.01-0.336-1.35-5.76-3.15-13-6.43-18.8-8.62-1.05-0.294-2.69-0.378-2.9-0.757-0.547-0.925 0-1.77 0.378-2.48-0.378-0.631-0.589-1.01-0.925-1.6 3.62-5.97 5.42-8.87 8.74-16.4 0.757 0 1.05-0.042 1.85-0.0841 0.21-0.462 0.589-1.26 1.14-1.26 0.715 0 1.51 1.39 2.1 1.85 5.21 4.25 8.49 7.27 14.9 11.3 0.252 0.126 0.378 0.252 0.799-0.336 0.631-0.967 0.841-2.1 0.925-3.03 1.72 1.81 2.44 2.61 3.78 3.95 0.252 0.252 0.504 0.547 0.547 0.673 0.378 1.43 0.462 2.48 0.673 3.95 0.252 2.02 0.547 4.04 0.925 7.44v0.589c0.168-0.126 0.378-0.294 0.547-0.378 0.673-0.294 0.841-0.378 1.72-0.42 2.1 0.126 3.36 1.77 3.36 3.36 0 2.56-2.31 3.49-3.36 3.45-0.715 0-2.27-0.21-3.15-2.1-0.0841-0.168-0.126-0.294-0.168-0.504-0.126 0.0841-0.21 0.21-0.336 0.336-0.168 0.252-6.05 6.22-6.73 6.81-0.589 0.462-1.05 0.547-1.35 0.547-0.42 0-1.6-0.252-5.97-1.26 0.757-1.09 1.26-2.44 1.6-3.66z" fill="#6b00ff" stroke-width=".042"/>
</svg>
